<svg width="1399" height="122" viewBox="0 0 1399 122" fill="none" xmlns="http://www.w3.org/2000/svg">
<path d="M1300.99 119.008V2.60498H1355.86C1381.74 2.60498 1397.37 14.4895 1397.37 36.4678C1397.37 51.934 1388.26 61.7021 1373.77 64.9582V65.2838C1402.91 70.3306 1392.33 115.427 1399 117.38V119.008H1368.56C1362.86 114.124 1373.44 78.4708 1348.53 78.4708H1330.3V119.008H1300.99ZM1330.3 26.5369V54.5389H1350.16C1361.88 54.5389 1368.07 50.306 1368.07 40.5379C1368.07 30.7697 1361.88 26.5369 1350.16 26.5369H1330.3Z" fill="white"/>
<path d="M1231.32 47.2128H1282.12V71.1447H1231.32V95.0766H1291.24V119.008H1202.02V2.60498H1290.26V26.5369H1231.32V47.2128Z" fill="white"/>
<path d="M1189.5 31.9094C1189.5 46.2359 1181.04 53.3992 1171.43 56.6553V56.9809C1183.64 59.0973 1194.06 67.2374 1194.06 84.6572C1194.06 109.403 1178.27 119.008 1154.17 119.008H1096.05V2.60498H1152.55C1176.8 2.60498 1189.5 12.0475 1189.5 31.9094ZM1125.36 49.6548H1145.55C1153.69 49.6548 1160.2 47.7012 1160.2 38.0958C1160.2 28.4905 1153.69 26.5369 1145.55 26.5369H1125.36V49.6548ZM1125.36 67.563V95.0766H1146.36C1158.57 95.0766 1164.76 92.1461 1164.76 81.2384C1164.76 70.3306 1158.57 67.563 1146.36 67.563H1125.36Z" fill="white"/>
<path d="M990.085 119.008V2.60498H1044.95C1070.84 2.60498 1086.46 14.4895 1086.46 36.4678C1086.46 51.934 1077.35 61.7021 1062.86 64.9582V65.2838C1092 70.3306 1081.42 115.427 1088.09 117.38V119.008H1057.65C1051.95 114.124 1062.53 78.4708 1037.62 78.4708H1019.39V119.008H990.085ZM1019.39 26.5369V54.5389H1039.25C1050.97 54.5389 1057.16 50.306 1057.16 40.5379C1057.16 30.7697 1050.97 26.5369 1039.25 26.5369H1019.39Z" fill="white"/>
<path d="M920.417 47.2128H971.211V71.1447H920.417V95.0766H980.328V119.008H891.112V2.60498H979.351V26.5369H920.417V47.2128Z" fill="white"/>
<path d="M849.223 41.1889C847.106 33.2116 841.734 23.9319 825.617 23.9319C806.406 23.9319 799.08 38.9097 799.08 60.7252C799.08 82.7035 806.406 97.6812 826.756 97.6812C840.269 97.6812 849.711 89.5411 850.037 78.3078H827.896V57.1435H880.318V119.008H859.317L856.386 104.193H856.06C850.525 114.775 839.618 121.613 822.523 121.613C789.474 121.613 769.775 95.8904 769.775 60.7252C769.775 25.7227 789.474 0 826.105 0C858.014 0 875.76 18.885 878.527 41.1889H849.223Z" fill="white"/>
<path d="M638.396 119.008V2.60498H690.004C722.401 2.60498 741.938 23.4437 741.938 60.8881C741.938 98.3326 724.029 119.008 691.632 119.008H638.396ZM667.7 26.5369V95.0766H687.073C705.307 95.0766 712.633 82.0524 712.633 60.8881C712.633 39.7239 705.307 26.5369 687.073 26.5369H667.7Z" fill="white"/>
<path d="M532.427 119.008V2.60498H587.292C613.177 2.60498 628.806 14.4895 628.806 36.4678C628.806 51.934 619.689 61.7021 605.2 64.9582V65.2838C634.341 70.3306 623.759 115.427 630.434 117.38V119.008H599.99C594.292 114.124 604.874 78.4708 579.965 78.4708H561.732V119.008H532.427ZM561.732 26.5369V54.5389H581.593C593.315 54.5389 599.502 50.306 599.502 40.5379C599.502 30.7697 593.315 26.5369 581.593 26.5369H561.732Z" fill="white"/>
<path d="M490.706 94.751H450.819L443.33 119.008H414.026L456.192 2.60498H485.496L527.499 119.008H498.195L490.706 94.751ZM457.494 72.4471H484.194L471.007 29.4673H470.681L457.494 72.4471Z" fill="white"/>
<path d="M311.43 119.008V2.60498H340.734L381.435 71.7959H381.76V2.60498H411.065V119.008H381.76L341.06 49.8176H340.734V119.008H311.43Z" fill="white"/>
<path d="M205.461 119.008V2.60498H260.326C286.211 2.60498 301.84 14.4895 301.84 36.4678C301.84 51.934 292.723 61.7021 278.234 64.9582V65.2838C307.376 70.3306 296.793 115.427 303.468 117.38V119.008H273.024C267.326 114.124 277.908 78.4708 253 78.4708H234.766V119.008H205.461ZM234.766 26.5369V54.5389H254.628C266.349 54.5389 272.536 50.306 272.536 40.5379C272.536 30.7697 266.349 26.5369 254.628 26.5369H234.766Z" fill="white"/>
<path d="M135.795 47.2128H186.589V71.1447H135.795V95.0766H195.706V119.008H106.49V2.60498H194.729V26.5369H135.795V47.2128Z" fill="white"/>
<path d="M93.9704 31.9094C93.9704 46.2359 85.5047 53.3992 75.8993 56.6553V56.9809C88.1095 59.0973 98.5288 67.2374 98.5288 84.6572C98.5288 109.403 82.737 119.008 58.6423 119.008H0.521973V2.60498H57.0143C81.2718 2.60498 93.9704 12.0475 93.9704 31.9094ZM29.8264 49.6548H50.0138C58.1539 49.6548 64.666 47.7012 64.666 38.0958C64.666 28.4905 58.1539 26.5369 50.0138 26.5369H29.8264V49.6548ZM29.8264 67.563V95.0766H50.8278C63.038 95.0766 69.2245 92.1461 69.2245 81.2384C69.2245 70.3306 63.038 67.563 50.8278 67.563H29.8264Z" fill="white"/>
</svg>
