<?xml version="1.0" encoding="UTF-8"?>
<svg id="Camada_2" data-name="Camada 2" xmlns="http://www.w3.org/2000/svg" viewBox="0 0 1946.27 179.33">
  <defs>
    <style>
      .cls-1 {
        fill: #fff;
      }
    </style>
  </defs>
  <g id="Camada_1-2" data-name="Camada 1">
    <g>
      <path class="cls-1" d="M8.71,141.02c6.32-4.73,9.7-9.35,10-21.39.3-12.83.25-35.07-.15-56.86-.2-12.04-1.84-16.52-13.08-27.11C-5.51,25.27,0,3.73,22.24,2.83c13.58-.55,28.15-.4,49.69.45,35.42,1.39,63.17,19.35,63.17,48.9,0,7.31-1.84,14.23-4.73,19.75-3.43,6.52-2.83,12.24,1.24,17.51,8.36,10.79,10.99,21.19,10.99,31.39,0,37.16-30.49,53.28-65.91,55.27-24.27,1.34-39.2,1.39-55.12.55-19.35-1-27.86-24.37-12.88-35.62ZM74.58,67.45h.8c3.88,0,7.86-3.23,7.86-12.39,0-7.61-2.64-10.69-6.57-11.59-5.22-1.19-8.41,1.94-8.41,10.1v2.69c0,8.56,2.44,11.19,6.32,11.19ZM80.54,136.3c6.77-.65,10.94-6.62,10.94-14.43,0-9.6-4.68-13.88-11.84-14.28h-.8c-7.76-.2-10.4,4.08-10.4,13.03v2.04c0,11.14,3.53,14.43,12.09,13.63Z"/>
      <path class="cls-1" d="M231.27,177.44c-10.15.15-21.19.2-32.08.2-19.2-.05-37.85-.35-49.94-1.04-21.79-1.29-26.96-24.42-12.64-35.57,6.07-4.73,9.5-10.94,9.8-23.03.3-13.28.35-33.43-.05-55.22-.2-12.44-2.69-16.32-13.03-27.11-10.2-10.6-5.37-32.04,16.37-32.73,19.25-.6,36.31-.9,51.48-.9,7.06-.05,13.73,0,20.05.1,5.27.05,10.35.15,15.17.3,23.23.65,31.59,7.36,35.27,23.03,2.24,9.4,2.64,17.76,2.84,26.07.4,17.36-14.13,25.77-25.97,22.09.85,14.48.45,18.31-.3,31.34-.1,1.79-.35,3.48-.7,5.07,12.19-7.91,30.04-1.29,30.04,17.31,0,10.6-.85,18.95-2.89,27.71-4.08,17.31-11.34,21.64-26.46,22.04-5.17.15-10.94.25-16.96.35ZM196.11,124.56c.94,7.16,4.88,11.64,13.48,12.83,1.59.25,3.33.35,5.22.35,9.4,0,15.72-4.23,20.74-11.44-8.46,3.73-19.25.4-26.21-12.24-2.74-4.97-4.97-5.87-6.96-5.87h-.6c-3.08,0-5.72,3.48-5.92,8.36-.2,4.38-.25,4.33.25,8.01ZM201.78,69.29h.6c1.84,0,4.68-1.44,6.91-6.12,5.12-10.6,13.58-14.62,21.34-13.48-5.12-7.56-11.39-7.91-16.61-7.91h-1.44c-9.15,0-16.71,3.88-16.71,13.63v2.24c0,7.56,2.83,11.64,5.92,11.64Z"/>
      <path class="cls-1" d="M274.76,140.77c6.37-4.63,9.2-10.35,9.45-22.58.4-16.71.6-32.83.2-55.81-.2-10.84-3.13-15.87-13.03-26.86-10.55-11.74-3.93-31.59,15.87-32.63,14.82-.8,27.11-.75,45.86,0,45.37,1.79,71.93,24.03,71.93,53.38,0,11.79-4.08,23.43-14.08,36.06-6.81,8.61-7.01,13.38-1.19,22.04,4.23,6.27,6.72,9.5,9.95,13.48,4.58,5.57,7.41,7.76,11.19,8.95,24.92,7.81,20.2,39.45-3.63,39.45h-16.12c-14.18,0-21.79-4.68-28.95-15.12-5.77-8.46-11.09-18.46-18.7-29.9-3.03-4.58-5.17-6.81-7.51-6.81h-.2c-1.89,0-3.03,1.29-3.03,3.53v.4c0,3.48,3.48,7.26,10.55,10.89,17.26,8.85,11.79,36.41-10,37.41-20.05.94-30.59.8-46.66,0-20.59-1.04-26.26-25.42-11.89-35.87ZM342.66,73.37c7.96-2.24,9.6-8.56,9.6-15.27,0-7.76-3.68-13.68-10.2-15.12-4.68-1.04-8.41,1.29-8.56,8.8v9.75c0,10.45,3.88,13.33,9.15,11.84Z"/>
      <path class="cls-1" d="M411.96,143.06c8.71-7.86,11.84-13.28,11.99-25.07.05-2.84.05-6.22.1-9.85.15-16.86.2-39.79.1-45.37-.3-13.78-3.23-16.52-11.59-25.87-12.04-13.48-4.08-33.23,14.48-34.27,10.2-.6,16.71-.2,23.23.45,10,.99,15.67,2.98,20.79,9.6,24.62,31.94,32.43,42.68,40.09,52.08,10.69,13.13,17.76,9.8,17.36-5.27v-1.84c-.2-9.35-1.34-11.39-10.65-18.9-13.53-10.89-7.31-34.27,13.88-35.67,16.02-1.04,18.5-1.04,34.87,0,19.8,1.24,26.86,24.82,13.63,35.22-7.76,6.12-10.74,11.04-10.84,25.07,0,2.04,0,4.13-.05,6.17-.1,26.12-.1,55.07.4,84.56.4,23.53-28.16,31.69-41.54,13.73-14.33-19.25-29.35-38.75-48.6-63.12-7.96-10.1-14.87-7.11-14.87,5.12v8.16c.15,11.59,2.44,15.87,12.04,24.62,12.39,11.24,5.52,32.38-15.32,33.88-16.07,1.14-18.36,1.19-34.67-.05-19.1-1.44-27.06-22.33-14.82-33.38Z"/>
      <path class="cls-1" d="M571.35,139.63c10.94-8.01,15.77-12.69,21.69-27.16,9.45-23.18,23.73-59.99,38.95-96.8,8.56-20.74,31.69-21.29,40.94,1.09,14.23,34.57,28.65,70.44,38.7,94.26,8.36,19.8,12.58,23.78,20.2,28.35,16.17,9.75,13.58,34.02-11.54,37.26-15.72,2.04-30.24,2.04-44.92,0-23.23-3.23-25.12-24.03-13.58-34.97,3.78-3.58,4.63-5.27,4.88-7.26.3-2.44-.7-4.38-2.29-5.47-1.74-1.19-5.32-1.99-11.19-2.39-2.89-.2-7.81-.4-15.52.2-3.33.25-4.68.5-6.12,1.49-1.84,1.29-2.44,3.33-2.24,5.02.2,2.04,1.69,3.78,4.97,5.52,17.01,9.1,15.02,34.42-9.85,37.85-14.82,2.04-28.3,1.84-43.82-.2-19.8-2.64-26.46-24.23-9.25-36.81Z"/>
      <path class="cls-1" d="M730.34,140.77c6.37-4.63,9.2-10.35,9.45-22.58.4-16.71.6-32.83.2-55.81-.2-10.84-3.13-15.87-13.03-26.86-10.55-11.74-3.93-31.59,15.87-32.63,14.82-.8,27.11-.75,45.86,0,45.37,1.79,71.93,24.03,71.93,53.38,0,11.79-4.08,23.43-14.08,36.06-6.81,8.61-7.01,13.38-1.19,22.04,4.23,6.27,6.72,9.5,9.95,13.48,4.58,5.57,7.41,7.76,11.19,8.95,24.92,7.81,20.2,39.45-3.63,39.45h-16.12c-14.18,0-21.79-4.68-28.95-15.12-5.77-8.46-11.09-18.46-18.7-29.9-3.03-4.58-5.17-6.81-7.51-6.81h-.2c-1.89,0-3.03,1.29-3.03,3.53v.4c0,3.48,3.48,7.26,10.55,10.89,17.26,8.85,11.79,36.41-10,37.41-20.05.94-30.59.8-46.66,0-20.59-1.04-26.26-25.42-11.89-35.87ZM798.24,73.37c7.96-2.24,9.6-8.56,9.6-15.27,0-7.76-3.68-13.68-10.2-15.12-4.68-1.04-8.41,1.29-8.56,8.8v9.75c0,10.45,3.88,13.33,9.15,11.84Z"/>
      <path class="cls-1" d="M870.23,141.02c6.07-4.73,9.5-10.94,9.8-23.03.3-13.28.35-33.43-.05-55.22-.2-12.44-2.69-16.32-13.03-27.11-10.2-10.65-5.52-31.89,16.66-32.83,16.37-.7,29.15-.7,54.67.05,55.51,1.69,100.63,31.19,100.63,87.6s-42.18,84.51-96.6,85.96c-33.23.9-46.26,1.04-59.29.2-21.99-1.39-27.16-24.42-12.78-35.62ZM929.67,118.19c.2,13.88,5.92,18.55,21.59,17.51,18.55-1.19,33.58-12.83,34.02-46.06.4-31.19-12.88-43.87-35.37-45.61-14.92-1.19-20.49,5.42-20.64,16.91-.2,14.28.2,40.14.4,57.25Z"/>
      <path class="cls-1" d="M1083.74,89.24c0-45.02,31.19-89.24,94.36-89.24,14.03,0,28.5,1.84,42.13,6.32,14.23,4.68,19.4,12.04,23.03,24.23,2.04,6.77,2.88,13.98,2.88,24.27,0,21.24-31.09,29-39.5,7.91-6.62-16.66-13.73-22.78-31.44-22.78-27.51,0-37.26,18.95-37.71,46.86-.6,35.07,12.83,53.57,41.98,53.57,3.33,0,5.37,0,8.11-.4,5.37-.8,8.61-4.23,8.61-10.4v-1.64c0-3.73-2.49-6.81-7.81-9.2-19.25-8.66-14.58-37.01,9.25-38.45,13.63-.8,27.51-.8,40.94,0,21.39,1.24,26.56,26.71,12.78,36.26-3.83,2.64-5.22,7.06-5.22,13.68v11.79c0,11.39-5.92,19.75-15.12,24.23-17.71,8.61-35.02,13.08-54.97,13.08-60.34,0-92.32-41.19-92.32-90.09Z"/>
      <path class="cls-1" d="M1344.41,177.44c-10.15.15-21.19.2-32.08.2-19.2-.05-37.85-.35-49.94-1.04-21.79-1.29-26.96-24.42-12.63-35.57,6.07-4.73,9.5-10.94,9.8-23.03.3-13.28.35-33.43-.05-55.22-.2-12.44-2.69-16.32-13.03-27.11-10.2-10.6-5.37-32.04,16.37-32.73,19.25-.6,36.31-.9,51.49-.9,7.06-.05,13.73,0,20.05.1,5.27.05,10.35.15,15.17.3,23.23.65,31.59,7.36,35.27,23.03,2.24,9.4,2.64,17.76,2.83,26.07.4,17.36-14.13,25.77-25.97,22.09.85,14.48.45,18.31-.3,31.34-.1,1.79-.35,3.48-.7,5.07,12.19-7.91,30.05-1.29,30.05,17.31,0,10.6-.85,18.95-2.89,27.71-4.08,17.31-11.34,21.64-26.46,22.04-5.17.15-10.94.25-16.96.35ZM1309.24,124.56c.95,7.16,4.88,11.64,13.48,12.83,1.59.25,3.33.35,5.22.35,9.4,0,15.72-4.23,20.74-11.44-8.46,3.73-19.25.4-26.21-12.24-2.74-4.97-4.97-5.87-6.96-5.87h-.6c-3.08,0-5.72,3.48-5.92,8.36-.2,4.38-.25,4.33.25,8.01ZM1314.91,69.29h.6c1.84,0,4.68-1.44,6.91-6.12,5.12-10.6,13.58-14.62,21.34-13.48-5.12-7.56-11.39-7.91-16.62-7.91h-1.44c-9.15,0-16.71,3.88-16.71,13.63v2.24c0,7.56,2.84,11.64,5.92,11.64Z"/>
      <path class="cls-1" d="M1387.89,140.77c6.37-4.63,9.2-10.35,9.45-22.58.4-16.71.6-32.83.2-55.81-.2-10.84-3.13-15.87-13.03-26.86-10.55-11.74-3.93-31.59,15.87-32.63,14.82-.8,27.11-.75,45.86,0,45.37,1.79,71.93,24.03,71.93,53.38,0,11.79-4.08,23.43-14.08,36.06-6.82,8.61-7.01,13.38-1.19,22.04,4.23,6.27,6.72,9.5,9.95,13.48,4.58,5.57,7.41,7.76,11.19,8.95,24.92,7.81,20.2,39.45-3.63,39.45h-16.12c-14.18,0-21.79-4.68-28.95-15.12-5.77-8.46-11.09-18.46-18.7-29.9-3.03-4.58-5.17-6.81-7.51-6.81h-.2c-1.89,0-3.03,1.29-3.03,3.53v.4c0,3.48,3.48,7.26,10.54,10.89,17.26,8.85,11.79,36.41-10,37.41-20.05.94-30.59.8-46.66,0-20.59-1.04-26.26-25.42-11.89-35.87ZM1455.79,73.37c7.96-2.24,9.6-8.56,9.6-15.27,0-7.76-3.68-13.68-10.2-15.12-4.68-1.04-8.41,1.29-8.56,8.8v9.75c0,10.45,3.88,13.33,9.15,11.84Z"/>
      <path class="cls-1" d="M1527.48,141.02c6.32-4.73,9.7-9.35,10-21.39.3-12.83.25-35.07-.15-56.86-.2-12.04-1.84-16.52-13.08-27.11-10.99-10.4-5.47-31.94,16.76-32.83,13.58-.55,28.16-.4,49.69.45,35.42,1.39,63.17,19.35,63.17,48.9,0,7.31-1.84,14.23-4.73,19.75-3.43,6.52-2.83,12.24,1.24,17.51,8.36,10.79,10.99,21.19,10.99,31.39,0,37.16-30.49,53.28-65.91,55.27-24.28,1.34-39.2,1.39-55.12.55-19.35-1-27.86-24.37-12.88-35.62ZM1593.34,67.45h.8c3.88,0,7.86-3.23,7.86-12.39,0-7.61-2.64-10.69-6.57-11.59-5.22-1.19-8.41,1.94-8.41,10.1v2.69c0,8.56,2.44,11.19,6.32,11.19ZM1599.31,136.3c6.76-.65,10.94-6.62,10.94-14.43,0-9.6-4.68-13.88-11.84-14.28h-.8c-7.76-.2-10.4,4.08-10.4,13.03v2.04c0,11.14,3.53,14.43,12.09,13.63Z"/>
      <path class="cls-1" d="M1750.04,177.44c-10.15.15-21.19.2-32.08.2-19.2-.05-37.85-.35-49.94-1.04-21.79-1.29-26.96-24.42-12.63-35.57,6.07-4.73,9.5-10.94,9.8-23.03.3-13.28.35-33.43-.05-55.22-.2-12.44-2.69-16.32-13.03-27.11-10.2-10.6-5.37-32.04,16.37-32.73,19.25-.6,36.31-.9,51.49-.9,7.06-.05,13.73,0,20.05.1,5.27.05,10.35.15,15.17.3,23.23.65,31.59,7.36,35.27,23.03,2.24,9.4,2.64,17.76,2.83,26.07.4,17.36-14.13,25.77-25.97,22.09.85,14.48.45,18.31-.3,31.34-.1,1.79-.35,3.48-.7,5.07,12.19-7.91,30.05-1.29,30.05,17.31,0,10.6-.85,18.95-2.89,27.71-4.08,17.31-11.34,21.64-26.46,22.04-5.17.15-10.94.25-16.96.35ZM1714.87,124.56c.95,7.16,4.88,11.64,13.48,12.83,1.59.25,3.33.35,5.22.35,9.4,0,15.72-4.23,20.74-11.44-8.46,3.73-19.25.4-26.21-12.24-2.74-4.97-4.97-5.87-6.96-5.87h-.6c-3.08,0-5.72,3.48-5.92,8.36-.2,4.38-.25,4.33.25,8.01ZM1720.54,69.29h.6c1.84,0,4.68-1.44,6.91-6.12,5.12-10.6,13.58-14.62,21.34-13.48-5.12-7.56-11.39-7.91-16.62-7.91h-1.44c-9.15,0-16.71,3.88-16.71,13.63v2.24c0,7.56,2.84,11.64,5.92,11.64Z"/>
      <path class="cls-1" d="M1793.52,140.77c6.37-4.63,9.2-10.35,9.45-22.58.4-16.71.6-32.83.2-55.81-.2-10.84-3.13-15.87-13.03-26.86-10.55-11.74-3.93-31.59,15.87-32.63,14.82-.8,27.11-.75,45.86,0,45.37,1.79,71.93,24.03,71.93,53.38,0,11.79-4.08,23.43-14.08,36.06-6.82,8.61-7.01,13.38-1.19,22.04,4.23,6.27,6.72,9.5,9.95,13.48,4.58,5.57,7.41,7.76,11.19,8.95,24.92,7.81,20.2,39.45-3.63,39.45h-16.12c-14.18,0-21.79-4.68-28.95-15.12-5.77-8.46-11.09-18.46-18.7-29.9-3.03-4.58-5.17-6.81-7.51-6.81h-.2c-1.89,0-3.03,1.29-3.03,3.53v.4c0,3.48,3.48,7.26,10.54,10.89,17.26,8.85,11.79,36.41-10,37.41-20.05.94-30.59.8-46.66,0-20.59-1.04-26.26-25.42-11.89-35.87ZM1861.42,73.37c7.96-2.24,9.6-8.56,9.6-15.27,0-7.76-3.68-13.68-10.2-15.12-4.68-1.04-8.41,1.29-8.56,8.8v9.75c0,10.45,3.88,13.33,9.15,11.84Z"/>
    </g>
  </g>
</svg>